<svg version="1.0" xmlns="http://www.w3.org/2000/svg" width="8746.667" height="746.667" viewBox="0 0 660 560"><path d="M7 75.8c-1.7 1.4-2.1 2.5-1.7 4.4.9 3.3 4.3 4.2 6.7 1.8 2.3-2.3 2-4.9-.7-6.7-1.7-1.2-2.3-1.1-4.3.5zM284.2 80.8c-.7.5-3.5.9-6.2 1.1-2.8.1-6.9.9-9.3 1.7-2.3.9-5.2 1.7-6.3 2-1.2.2-3.5 1.1-5 1.9-1.6.8-3.6 1.5-4.4 1.5-.8 0-3.1.9-5.1 1.9-1.9 1.1-5.4 2.5-7.7 3.2-2.3.7-4.2 1.6-4.2 2 0 .4-3.9 3.6-8.7 7.2-4.9 3.5-10.8 8.8-13.3 11.6-2.5 2.8-6.9 7.6-9.7 10.6-2.9 2.9-5.3 6-5.3 6.8 0 2.3-2.9 8.7-4 8.7-.5 0-1.2 1.7-1.6 3.8-.3 2.1-1.4 4.9-2.4 6.2-1.6 2.2-1.9 2.2-3.4.8-.9-.9-1.6-2-1.6-2.5 0-1-1.4-2.2-10.3-9.2-3.7-2.8-7-5.1-7.4-5.1-.4 0-1.6-.9-2.8-2-1.1-1.1-5.1-5-9-8.7-3.8-3.7-8.6-8.8-10.5-11.2-5.2-6.6-12.3-12.9-15.2-13.5-.7-.2-3.3-1.2-5.8-2.3-4.1-1.9-4.8-1.9-8-.6-11.4 4.6-14.5 15.1-12.6 42.6.3 4.9 1.1 9.8 1.7 10.9.6 1.2 1.3 3.5 1.5 5.2.2 1.7 1 5.2 1.8 7.7s1.1 5.1.8 5.6c-.4.6-.7 3.4-.7 6.2v5.1l-5-.7c-13.4-1.8-27.6 1.3-34 7.3-1.1 1.1-5.1 4.2-9 7.1-8.1 6-13.5 11.4-16.1 16.3-1.1 1.9-2.1 3.7-2.4 4-.3.3-1.5 2.6-2.8 5.3-2.6 5.7-2.9 14.1-.6 19 1.5 3.1 8.7 8.7 11.3 8.7.6 0 1.1.4 1.1 1 0 .5.9 1 1.9 1 1.1 0 2.3.5 2.6 1 .4.6 1 .8 1.5.5.5-.3 2.3 0 4.1.7l3.1 1.3-2.8 2c-4 2.9-11.4 9.9-11.4 10.8 0 .5-.7 1.5-1.5 2.3-.8.8-1.7 3-2.1 5-.5 3-.2 3.8 2.2 5.9 1.6 1.4 3.5 2.5 4.2 2.5.6 0 1.2.4 1.2 1 0 .5.7 1 1.5 1s1.5.4 1.5.9c0 .7 7.5 4.2 10 4.7.3 0 1.6.4 3 .7 2.8.7 8.4 1.7 11.5 2 1.1.1 2.3.6 2.7 1.2.9 1.2 18.6 1.2 24 .1l3.8-.8-2.9 6.3c-3 6.9-4.4 10.1-4.5 10.9-.1.3-.4.9-.7 1.5-2.1 3.5-9.4 30.4-8.5 31.3.3.3.1 1.1-.5 1.9-.6.7-.9 1.3-.7 1.3.2 0-.1 3.5-.8 7.7-1.3 7.7-1.3 42.1 0 47.3.3 1.4.8 4.1 1 6 .3 1.9.8 4.6 1.1 6 .3 1.4.7 3.7 1 5.3.3 1.5 1.1 4.6 1.9 7 .7 2.3 1.9 6.2 2.6 8.7 3.2 10.6 14 33.9 16.2 34.8.5.2.6.7.3 1.2s0 1.4.7 2.2c.7.7 3.8 5 6.8 9.6 3 4.5 5.8 8.2 6.2 8.2.5 0 .8.5.8 1.1 0 1.9 13.8 16.3 25 26 16 13.9 39.6 27.2 60 33.9 5.8 1.9 10.6 3.8 10.8 4.2.2.4 1 .4 1.7.2.8-.3 2-.2 2.7.2 1.2.8 2.3 1 7.8 1.9 1.4.2 2.5.4 2.5.5 0 .1.9.3 2 .5 15 2.6 50 2.6 61.5 0 1.4-.3 3.9-.8 5.5-1.1 1.7-.2 4.8-1 7-1.5 2.2-.6 4.7-1.3 5.5-1.4 3.9-.9 15.6-4.8 16.7-5.7.6-.5 2.3-1.1 3.8-1.4 4-.7 23.7-11.2 33.9-18 8.3-5.5 21.5-16.4 29.5-24.5 6.6-6.6 21.1-25 21.1-26.7 0-.6.4-1.2.8-1.4 1-.4 8.2-12.5 8.2-13.9 0-.5.5-.9 1-.9.6 0 1-.5 1-1.1 0-.7 1.5-4.4 3.4-8.3 3.3-6.9 8.7-21.6 9-24.6.1-.9.5-2 .8-2.5.7-1.1 4.9-21 4.7-22.2-.1-.5 0-1 .1-1.3.6-1.4 1.1-11.1 1.2-24.5 0-16.2 0-16.8-1.4-26.5-.5-3.6-1.1-7.4-1.2-8.5-.7-4.5-6-23.8-7.7-28.2-.7-1.5-1.3-3.3-1.4-3.9-.7-3.1-11.8-25-16.3-32-4.4-6.9-6-11.3-6.7-17.7-.1-.9.2-1.7.7-1.7.5 0 .7-.4.3-.9-.3-.5-.1-1.2.4-1.5.5-.4.8-3.4.6-6.7-.4-5.2-.1-6.7 2-9.6 3.9-5.8 2.8-8.8-5.3-14.9-.8-.6-1.6-2.1-1.7-3.5-.4-3.6-.4-3.6-2.5-4.2-1-.3-2.5-2-3.3-3.8-1.3-3.1-1.3-3.5.4-4.9 1.1-.8 2.1-2.6 2.4-4 1.2-6.3 1.7-8 2.5-8 .4 0 .6-.9.3-2s-.9-2-1.4-2c-.5 0-.6-.7-.2-1.6.3-.8.1-2.5-.5-3.7-.5-1.2-1.5-3.6-2.2-5.4-.6-1.7-2.7-4.9-4.6-7-1.9-2.1-3.4-4.9-3.5-6.3-.2-9.1-2.1-18-3.8-18-.3 0-.7-1.4-.8-3-.2-3-2.7-7.5-4.1-7.5-1.6 0-5.4-3.4-4.8-4.3.3-.6-.9-2.2-2.6-3.8-1.8-1.5-3.2-2.9-3-3 .1-.2.1-.7.1-1.2-.1-.4-.1-1.4 0-2.4.1-.9-1.5-2.9-3.6-4.5-2.1-1.5-4.7-3.6-5.7-4.6-1.1-.9-2.8-1.7-3.7-1.7-.9 0-4.5-2.7-7.8-6-3.4-3.3-6.4-6-6.9-6-.4 0-2.3-1.5-4.2-3.3-2.4-2.3-4.6-3.4-6.7-3.5-1.7 0-4.6-.8-6.4-1.7-1.7-1-5.7-1.9-8.7-2.1-5.4-.4-6.6-.8-6.8-2.2-.3-2.3-2-4.2-4.7-5.3-1.8-.7-3.4-1.6-3.7-2-.7-1.1-22.9-1.9-23.5-.9-.5.8-8 .6-11-.3-1.1-.4-2.6-.3-3.3.1zM52.8 139c-2.1 1.3-5.2 10.5-4.9 14.5.3 4.1 2.7 7.5 5.5 7.5 2.5 0 5.5-2.7 6-5.6.2-1.1.5-2.4.7-2.9.7-2.2-1.3-11.5-2.7-13-1.8-1.7-2.3-1.8-4.6-.5zM69.6 144.6c-2.1 2-2.1 6.4 0 6.4 4.4 0 6.9-4.1 4.2-6.8-1.6-1.6-2.3-1.5-4.2.4zM529.2 145.2c-5.9 2.9 2.2 12 10.3 11.6 4.7-.2 7.5-2.2 7.5-5.4 0-5.7-10.9-9.5-17.8-6.2zM544.7 227c-5.8 2.2-9.7 6.1-9.7 9.7 0 2.2.3 2.4 2.3 1.9 1.2-.4 3.3-.9 4.7-1.2 1.4-.3 3.2-1.2 4.1-2 .8-.8 2.1-1.4 2.7-1.4.7 0 1.2-.4 1.2-.9s.9-1.2 1.9-1.6c1.8-.5 3.8-4.1 2.9-5-1.2-1.3-6-1-10.1.5z"/></svg>