<?xml version="1.0" standalone="no"?>
<!DOCTYPE svg PUBLIC "-//W3C//DTD SVG 20010904//EN"
 "http://www.w3.org/TR/2001/REC-SVG-20010904/DTD/svg10.dtd">
<svg version="1.0" xmlns="http://www.w3.org/2000/svg"
 width="6560.000000pt" height="560.000000pt" viewBox="0 0 660.000000 560.000000"
 preserveAspectRatio="xMidYMid meet">
<metadata>
Created by potrace 1.14, written by Peter Selinger 2001-2017
</metadata>
<g transform="translate(0.000000,560.000000) scale(0.100000,-0.100000)"
fill="#000000" stroke="none">
<path d="M70 4842 c-17 -14 -21 -25 -17 -44 9 -33 43 -42 67 -18 23 23 20 49
-7 67 -17 12 -23 11 -43 -5z"/>
<path d="M2842 4792 c-7 -5 -35 -9 -62 -11 -28 -1 -69 -9 -93 -17 -23 -9 -52
-17 -63 -20 -12 -2 -35 -11 -50 -19 -16 -8 -36 -15 -44 -15 -8 0 -31 -9 -51
-19 -19 -11 -54 -25 -77 -32 -23 -7 -42 -16 -42 -20 0 -4 -39 -36 -87 -72 -49
-35 -108 -88 -133 -116 -25 -28 -69 -76 -97 -106 -29 -29 -53 -60 -53 -68 0
-23 -29 -87 -40 -87 -5 0 -12 -17 -16 -38 -3 -21 -14 -49 -24 -62 -16 -22 -19
-22 -34 -8 -9 9 -16 20 -16 25 0 10 -14 22 -103 92 -37 28 -70 51 -74 51 -4 0
-16 9 -28 20 -11 11 -51 50 -90 87 -38 37 -86 88 -105 112 -52 66 -123 129
-152 135 -7 2 -33 12 -58 23 -41 19 -48 19 -80 6 -114 -46 -145 -151 -126
-426 3 -49 11 -98 17 -109 6 -12 13 -35 15 -52 2 -17 10 -52 18 -77 8 -25 11
-51 8 -56 -4 -6 -7 -34 -7 -62 l0 -51 -50 7 c-134 18 -276 -13 -340 -73 -11
-11 -51 -42 -90 -71 -81 -60 -135 -114 -161 -163 -11 -19 -21 -37 -24 -40 -3
-3 -15 -26 -28 -53 -26 -57 -29 -141 -6 -190 15 -31 87 -87 113 -87 6 0 11 -4
11 -10 0 -5 9 -10 19 -10 11 0 23 -5 26 -10 4 -6 10 -8 15 -5 5 3 23 0 41 -7
l31 -13 -28 -20 c-40 -29 -114 -99 -114 -108 0 -5 -7 -15 -15 -23 -8 -8 -17
-30 -21 -50 -5 -30 -2 -38 22 -59 16 -14 35 -25 42 -25 6 0 12 -4 12 -10 0 -5
7 -10 15 -10 8 0 15 -4 15 -9 0 -7 75 -42 100 -47 3 0 16 -4 30 -7 28 -7 84
-17 115 -20 11 -1 23 -6 27 -12 9 -12 186 -12 240 -1 l38 8 -29 -63 c-30 -69
-44 -101 -45 -109 -1 -3 -4 -9 -7 -15 -21 -35 -94 -304 -85 -313 3 -3 1 -11
-5 -19 -6 -7 -9 -13 -7 -13 2 0 -1 -35 -8 -77 -13 -77 -13 -421 0 -473 3 -14
8 -41 10 -60 3 -19 8 -46 11 -60 3 -14 7 -37 10 -53 3 -15 11 -46 19 -70 7
-23 19 -62 26 -87 32 -106 140 -339 162 -348 5 -2 6 -7 3 -12 -3 -5 0 -14 7
-22 7 -7 38 -50 68 -96 30 -45 58 -82 62 -82 5 0 8 -5 8 -11 0 -19 138 -163
250 -260 160 -139 396 -272 600 -339 58 -19 106 -38 108 -42 2 -4 10 -4 17 -2
8 3 20 2 27 -2 12 -8 23 -10 78 -19 14 -2 25 -4 25 -5 0 -1 9 -3 20 -5 150
-26 500 -26 615 0 14 3 39 8 55 11 17 2 48 10 70 15 22 6 47 13 55 14 39 9
156 48 167 57 6 5 23 11 38 14 40 7 237 112 339 180 83 55 215 164 295 245 66
66 211 250 211 267 0 6 4 12 8 14 10 4 82 125 82 139 0 5 5 9 10 9 6 0 10 5
10 11 0 7 15 44 34 83 33 69 87 216 90 246 1 9 5 20 8 25 7 11 49 210 47 222
-1 5 0 10 1 13 6 14 11 111 12 245 0 162 0 168 -14 265 -5 36 -11 74 -12 85
-7 45 -60 238 -77 282 -7 15 -13 33 -14 39 -7 31 -118 250 -163 320 -44 69
-60 113 -67 177 -1 9 2 17 7 17 5 0 7 4 3 9 -3 5 -1 12 4 15 5 4 8 34 6 67 -4
52 -1 67 20 96 39 58 28 88 -53 149 -8 6 -16 21 -17 35 -4 36 -4 36 -25 42
-10 3 -25 20 -33 38 -13 31 -13 35 4 49 11 8 21 26 24 40 12 63 17 80 25 80 4
0 6 9 3 20 -3 11 -9 20 -14 20 -5 0 -6 7 -2 16 3 8 1 25 -5 37 -5 12 -15 36
-22 54 -6 17 -27 49 -46 70 -19 21 -34 49 -35 63 -2 91 -21 180 -38 180 -3 0
-7 14 -8 30 -2 30 -27 75 -41 75 -16 0 -54 34 -48 43 3 6 -9 22 -26 38 -18 15
-32 29 -30 30 1 2 1 7 1 12 -1 4 -1 14 0 24 1 9 -15 29 -36 45 -21 15 -47 36
-57 46 -11 9 -28 17 -37 17 -9 0 -45 27 -78 60 -34 33 -64 60 -69 60 -4 0 -23
15 -42 33 -24 23 -46 34 -67 35 -17 0 -46 8 -64 17 -17 10 -57 19 -87 21 -54
4 -66 8 -68 22 -3 23 -20 42 -47 53 -18 7 -34 16 -37 20 -7 11 -229 19 -235 9
-5 -8 -80 -6 -110 3 -11 4 -26 3 -33 -1z"/>
<path d="M528 4210 c-21 -13 -52 -105 -49 -145 3 -41 27 -75 55 -75 25 0 55
27 60 56 2 11 5 24 7 29 7 22 -13 115 -27 130 -18 17 -23 18 -46 5z"/>
<path d="M696 4154 c-21 -20 -21 -64 0 -64 44 0 69 41 42 68 -16 16 -23 15
-42 -4z"/>
<path d="M5292 4148 c-59 -29 22 -120 103 -116 47 2 75 22 75 54 0 57 -109 95
-178 62z"/>
<path d="M5447 3330 c-58 -22 -97 -61 -97 -97 0 -22 3 -24 23 -19 12 4 33 9
47 12 14 3 32 12 41 20 8 8 21 14 27 14 7 0 12 4 12 9 0 5 9 12 19 16 18 5 38
41 29 50 -12 13 -60 10 -101 -5z"/>
</g>
</svg>
